<svg width="111" height="161" viewBox="0 0 111 161" fill="none" xmlns="http://www.w3.org/2000/svg">
<path d="M0 36C0 29.9249 4.92487 25 11 25H11.7515C17.8267 25 22.7516 29.9249 22.7516 36V36C22.7516 42.0751 17.8267 47 11.7516 47H11C4.92488 47 0 42.0751 0 36V36Z" fill="#FF8181"/>
<path d="M0 94C0 87.9249 4.92487 83 11 83H11.7515C17.8267 83 22.7516 87.9249 22.7516 94V94C22.7516 100.075 17.8267 105 11.7516 105H11C4.92488 105 0 100.075 0 94V94Z" fill="#FFDE7C"/>
<path d="M0 122C0 115.925 4.92487 111 11 111H11.7515C17.8267 111 22.7516 115.925 22.7516 122V122C22.7516 128.075 17.8267 133 11.7516 133H11C4.92488 133 0 128.075 0 122V122Z" fill="#97BEF9"/>
<path d="M0 150C0 143.925 4.92487 139 11 139H11.7515C17.8267 139 22.7516 143.925 22.7516 150V150C22.7516 156.075 17.8267 161 11.7516 161H11C4.92488 161 0 156.075 0 150V150Z" fill="#477BE8"/>
<path d="M0 66C0 59.9249 4.92487 55 11 55H11.7515C17.8267 55 22.7516 59.9249 22.7516 66V66C22.7516 72.0751 17.8267 77 11.7516 77H11C4.92487 77 0 72.0751 0 66V66Z" fill="#FFB37C"/>
<path d="M37.4654 34.4242C37.4271 34.1004 37.2715 33.849 36.9988 33.67C36.7261 33.491 36.3916 33.4015 35.9953 33.4015C35.7055 33.4015 35.4519 33.4484 35.2346 33.5421C35.0194 33.6359 34.8511 33.7648 34.7296 33.9289C34.6103 34.0929 34.5506 34.2794 34.5506 34.4882C34.5506 34.6629 34.5922 34.8131 34.6753 34.9388C34.7605 35.0624 34.8692 35.1657 35.0013 35.2488C35.1334 35.3298 35.2719 35.3969 35.4168 35.4502C35.5617 35.5013 35.6948 35.5429 35.8163 35.5748L36.481 35.7538C36.6515 35.7985 36.8411 35.8603 37.0499 35.9392C37.2609 36.018 37.4622 36.1256 37.654 36.262C37.8479 36.3962 38.0077 36.5688 38.1334 36.7797C38.2591 36.9906 38.322 37.2495 38.322 37.5563C38.322 37.91 38.2293 38.2296 38.0439 38.5152C37.8607 38.8007 37.5922 39.0276 37.2385 39.1959C36.8869 39.3642 36.4597 39.4484 35.9569 39.4484C35.4881 39.4484 35.0823 39.3728 34.7392 39.2215C34.3983 39.0702 34.1298 38.8593 33.9338 38.5887C33.7399 38.3181 33.6302 38.0038 33.6046 37.6458H34.4228C34.4441 37.893 34.5272 38.0975 34.6721 38.2595C34.8191 38.4193 35.0045 38.5386 35.2282 38.6174C35.4541 38.6941 35.697 38.7325 35.9569 38.7325C36.2595 38.7325 36.5311 38.6835 36.7719 38.5855C37.0127 38.4853 37.2033 38.3468 37.344 38.17C37.4846 37.991 37.5549 37.7822 37.5549 37.5436C37.5549 37.3262 37.4942 37.1494 37.3727 37.013C37.2513 36.8767 37.0915 36.7659 36.8933 36.6806C36.6952 36.5954 36.481 36.5208 36.2509 36.4569L35.4455 36.2268C34.9342 36.0798 34.5293 35.8699 34.231 35.5972C33.9328 35.3245 33.7836 34.9676 33.7836 34.5265C33.7836 34.16 33.8827 33.8404 34.0808 33.5677C34.2811 33.2929 34.5496 33.0798 34.8862 32.9285C35.225 32.7751 35.6032 32.6984 36.0208 32.6984C36.4427 32.6984 36.8177 32.774 37.1458 32.9253C37.4739 33.0745 37.7339 33.279 37.9256 33.5389C38.1195 33.7989 38.2218 34.094 38.2325 34.4242H37.4654ZM45.1479 36.0606C45.1479 36.7509 45.0232 37.3475 44.7739 37.8504C44.5246 38.3532 44.1827 38.741 43.748 39.0137C43.3133 39.2865 42.8169 39.4228 42.2587 39.4228C41.7004 39.4228 41.204 39.2865 40.7693 39.0137C40.3347 38.741 39.9927 38.3532 39.7434 37.8504C39.4941 37.3475 39.3695 36.7509 39.3695 36.0606C39.3695 35.3703 39.4941 34.7737 39.7434 34.2708C39.9927 33.768 40.3347 33.3802 40.7693 33.1075C41.204 32.8348 41.7004 32.6984 42.2587 32.6984C42.8169 32.6984 43.3133 32.8348 43.748 33.1075C44.1827 33.3802 44.5246 33.768 44.7739 34.2708C45.0232 34.7737 45.1479 35.3703 45.1479 36.0606ZM44.3808 36.0606C44.3808 35.4938 44.286 35.0155 44.0964 34.6256C43.9089 34.2357 43.6543 33.9406 43.3325 33.7403C43.0129 33.54 42.655 33.4399 42.2587 33.4399C41.8623 33.4399 41.5033 33.54 41.1816 33.7403C40.862 33.9406 40.6074 34.2357 40.4177 34.6256C40.2302 35.0155 40.1365 35.4938 40.1365 36.0606C40.1365 36.6274 40.2302 37.1057 40.4177 37.4956C40.6074 37.8855 40.862 38.1806 41.1816 38.3809C41.5033 38.5812 41.8623 38.6813 42.2587 38.6813C42.655 38.6813 43.0129 38.5812 43.3325 38.3809C43.6543 38.1806 43.9089 37.8855 44.0964 37.4956C44.286 37.1057 44.3808 36.6274 44.3808 36.0606ZM50.0601 34.4242C50.0218 34.1004 49.8663 33.849 49.5935 33.67C49.3208 33.491 48.9863 33.4015 48.59 33.4015C48.3002 33.4015 48.0467 33.4484 47.8293 33.5421C47.6141 33.6359 47.4458 33.7648 47.3244 33.9289C47.205 34.0929 47.1454 34.2794 47.1454 34.4882C47.1454 34.6629 47.1869 34.8131 47.27 34.9388C47.3552 35.0624 47.4639 35.1657 47.596 35.2488C47.7281 35.3298 47.8666 35.3969 48.0115 35.4502C48.1564 35.5013 48.2896 35.5429 48.411 35.5748L49.0758 35.7538C49.2462 35.7985 49.4359 35.8603 49.6447 35.9392C49.8556 36.018 50.057 36.1256 50.2487 36.262C50.4426 36.3962 50.6024 36.5688 50.7281 36.7797C50.8538 36.9906 50.9167 37.2495 50.9167 37.5563C50.9167 37.91 50.824 38.2296 50.6386 38.5152C50.4554 38.8007 50.1869 39.0276 49.8332 39.1959C49.4817 39.3642 49.0545 39.4484 48.5516 39.4484C48.0829 39.4484 47.677 39.3728 47.3339 39.2215C46.993 39.0702 46.7246 38.8593 46.5285 38.5887C46.3347 38.3181 46.2249 38.0038 46.1994 37.6458H47.0175C47.0388 37.893 47.1219 38.0975 47.2668 38.2595C47.4138 38.4193 47.5992 38.5386 47.8229 38.6174C48.0488 38.6941 48.2917 38.7325 48.5516 38.7325C48.8542 38.7325 49.1258 38.6835 49.3666 38.5855C49.6074 38.4853 49.7981 38.3468 49.9387 38.17C50.0793 37.991 50.1496 37.7822 50.1496 37.5436C50.1496 37.3262 50.0889 37.1494 49.9675 37.013C49.846 36.8767 49.6862 36.7659 49.4881 36.6806C49.2899 36.5954 49.0758 36.5208 48.8457 36.4569L48.0403 36.2268C47.5289 36.0798 47.1241 35.8699 46.8258 35.5972C46.5275 35.3245 46.3783 34.9676 46.3783 34.5265C46.3783 34.16 46.4774 33.8404 46.6756 33.5677C46.8758 33.2929 47.1443 33.0798 47.481 32.9285C47.8197 32.7751 48.1979 32.6984 48.6155 32.6984C49.0374 32.6984 49.4124 32.774 49.7405 32.9253C50.0687 33.0745 50.3286 33.279 50.5204 33.5389C50.7143 33.7989 50.8165 34.094 50.8272 34.4242H50.0601Z" fill="black"/>
<path d="M34.6785 62.7879V69.3333H33.8859V62.7879H34.6785ZM36.1654 69.3333V64.4242H36.8941V65.1913H36.9581C37.0603 64.9292 37.2255 64.7257 37.4534 64.5808C37.6814 64.4338 37.9552 64.3603 38.2748 64.3603C38.5987 64.3603 38.8682 64.4338 39.0834 64.5808C39.3007 64.7257 39.4701 64.9292 39.5916 65.1913H39.6427C39.7684 64.9377 39.957 64.7364 40.2084 64.5872C40.4598 64.436 40.7613 64.3603 41.1129 64.3603C41.5518 64.3603 41.9108 64.4978 42.1899 64.7726C42.4691 65.0453 42.6086 65.4704 42.6086 66.0478V69.3333H41.8544V66.0478C41.8544 65.6856 41.7553 65.4267 41.5571 65.2712C41.359 65.1157 41.1257 65.0379 40.8572 65.0379C40.512 65.0379 40.2446 65.1423 40.055 65.3511C39.8654 65.5578 39.7706 65.8198 39.7706 66.1373V69.3333H39.0035V65.9711C39.0035 65.692 38.913 65.4672 38.7318 65.2968C38.5507 65.1242 38.3174 65.0379 38.0319 65.0379C37.8359 65.0379 37.6527 65.0901 37.4822 65.1945C37.3139 65.2989 37.1775 65.4438 37.0731 65.6291C36.9708 65.8124 36.9197 66.0244 36.9197 66.2652V69.3333H36.1654ZM43.9877 69.3333V64.4242H44.7164V65.1913H44.7803C44.8826 64.9292 45.0477 64.7257 45.2757 64.5808C45.5037 64.4338 45.7775 64.3603 46.0971 64.3603C46.4209 64.3603 46.6905 64.4338 46.9057 64.5808C47.123 64.7257 47.2924 64.9292 47.4138 65.1913H47.465C47.5907 64.9377 47.7793 64.7364 48.0307 64.5872C48.2821 64.436 48.5836 64.3603 48.9351 64.3603C49.3741 64.3603 49.7331 64.4978 50.0122 64.7726C50.2913 65.0453 50.4309 65.4704 50.4309 66.0478V69.3333H49.6766V66.0478C49.6766 65.6856 49.5775 65.4267 49.3794 65.2712C49.1812 65.1157 48.9479 65.0379 48.6795 65.0379C48.3343 65.0379 48.0669 65.1423 47.8773 65.3511C47.6876 65.5578 47.5928 65.8198 47.5928 66.1373V69.3333H46.8258V65.9711C46.8258 65.692 46.7352 65.4672 46.5541 65.2968C46.373 65.1242 46.1397 65.0379 45.8542 65.0379C45.6582 65.0379 45.4749 65.0901 45.3045 65.1945C45.1361 65.2989 44.9998 65.4438 44.8954 65.6291C44.7931 65.8124 44.742 66.0244 44.742 66.2652V69.3333H43.9877ZM53.8682 69.4356C53.3952 69.4356 52.9872 69.3312 52.6441 69.1224C52.3032 68.9115 52.0401 68.6174 51.8547 68.2403C51.6715 67.861 51.5799 67.42 51.5799 66.9171C51.5799 66.4143 51.6715 65.9711 51.8547 65.5876C52.0401 65.2019 52.2979 64.9015 52.6282 64.6863C52.9605 64.469 53.3483 64.3603 53.7915 64.3603C54.0472 64.3603 54.2997 64.4029 54.549 64.4882C54.7983 64.5734 55.0252 64.7119 55.2297 64.9036C55.4343 65.0933 55.5973 65.3447 55.7187 65.6579C55.8402 65.9711 55.9009 66.3568 55.9009 66.8149V67.1345H52.1168V66.4825H55.1338C55.1338 66.2055 55.0784 65.9583 54.9676 65.741C54.859 65.5237 54.7034 65.3522 54.501 65.2264C54.3007 65.1007 54.0642 65.0379 53.7915 65.0379C53.4911 65.0379 53.2311 65.1125 53.0117 65.2616C52.7943 65.4086 52.6271 65.6004 52.5099 65.8369C52.3927 66.0734 52.3341 66.3269 52.3341 66.5975V67.0322C52.3341 67.4029 52.398 67.7172 52.5259 67.975C52.6559 68.2307 52.8359 68.4257 53.066 68.5599C53.2961 68.692 53.5635 68.7581 53.8682 68.7581C54.0664 68.7581 54.2453 68.7304 54.4051 68.675C54.5671 68.6174 54.7066 68.5322 54.8238 68.4193C54.941 68.3042 55.0316 68.1615 55.0955 67.991L55.8242 68.1956C55.7475 68.4427 55.6186 68.66 55.4375 68.8475C55.2563 69.0329 55.0326 69.1778 54.7663 69.2822C54.5 69.3845 54.2006 69.4356 53.8682 69.4356ZM58.9019 69.4356C58.4929 69.4356 58.1317 69.3323 57.8185 69.1256C57.5053 68.9168 57.2603 68.6228 57.0834 68.2435C56.9066 67.8621 56.8181 67.4115 56.8181 66.8916C56.8181 66.3759 56.9066 65.9285 57.0834 65.5492C57.2603 65.17 57.5063 64.877 57.8217 64.6703C58.137 64.4637 58.5014 64.3603 58.9147 64.3603C59.2343 64.3603 59.4868 64.4136 59.6722 64.5201C59.8597 64.6245 60.0024 64.7438 60.1005 64.8781C60.2006 65.0102 60.2784 65.1188 60.3338 65.2041H60.3977V62.7879H61.1519V69.3333H60.4233V68.5791H60.3338C60.2784 68.6686 60.1995 68.7815 60.0973 68.9179C59.995 69.0521 59.849 69.1725 59.6594 69.279C59.4698 69.3834 59.2173 69.4356 58.9019 69.4356ZM59.0042 68.7581C59.3068 68.7581 59.5625 68.6792 59.7713 68.5215C59.9801 68.3617 60.1388 68.1412 60.2475 67.86C60.3561 67.5766 60.4105 67.2495 60.4105 66.8788C60.4105 66.5123 60.3572 66.1916 60.2507 65.9168C60.1441 65.6398 59.9865 65.4246 59.7777 65.2712C59.5688 65.1157 59.311 65.0379 59.0042 65.0379C58.6846 65.0379 58.4183 65.1199 58.2052 65.284C57.9943 65.4459 57.8355 65.6664 57.729 65.9456C57.6246 66.2225 57.5724 66.5336 57.5724 66.8788C57.5724 67.2282 57.6257 67.5457 57.7322 67.8312C57.8409 68.1146 58.0007 68.3404 58.2116 68.5088C58.4247 68.675 58.6889 68.7581 59.0042 68.7581ZM62.6381 69.3333V64.4242H63.3924V69.3333H62.6381ZM63.0216 63.6061C62.8746 63.6061 62.7478 63.556 62.6413 63.4558C62.5369 63.3557 62.4847 63.2353 62.4847 63.0947C62.4847 62.9541 62.5369 62.8337 62.6413 62.7335C62.7478 62.6334 62.8746 62.5833 63.0216 62.5833C63.1686 62.5833 63.2943 62.6334 63.3987 62.7335C63.5053 62.8337 63.5585 62.9541 63.5585 63.0947C63.5585 63.2353 63.5053 63.3557 63.3987 63.4558C63.2943 63.556 63.1686 63.6061 63.0216 63.6061ZM66.2184 69.4484C65.9074 69.4484 65.625 69.3898 65.3715 69.2726C65.1179 69.1533 64.9166 68.9818 64.7674 68.7581C64.6183 68.5322 64.5437 68.2595 64.5437 67.9399C64.5437 67.6586 64.5991 67.4306 64.7099 67.2559C64.8207 67.0791 64.9688 66.9406 65.1542 66.8404C65.3395 66.7403 65.5441 66.6657 65.7678 66.6167C65.9937 66.5656 66.2206 66.5251 66.4486 66.4953C66.7468 66.4569 66.9887 66.4282 67.1741 66.409C67.3616 66.3877 67.4979 66.3525 67.5831 66.3035C67.6705 66.2545 67.7142 66.1693 67.7142 66.0478V66.0223C67.7142 65.7069 67.6279 65.4619 67.4553 65.2872C67.2848 65.1125 67.026 65.0251 66.6787 65.0251C66.3186 65.0251 66.0363 65.1039 65.8317 65.2616C65.6272 65.4193 65.4834 65.5876 65.4003 65.7666L64.6843 65.5109C64.8122 65.2126 64.9826 64.9804 65.1957 64.8142C65.4109 64.6458 65.6453 64.5286 65.8988 64.4626C66.1545 64.3944 66.4059 64.3603 66.6531 64.3603C66.8108 64.3603 66.9919 64.3795 67.1964 64.4179C67.4031 64.4541 67.6023 64.5297 67.7941 64.6448C67.988 64.7598 68.1488 64.9335 68.2767 65.1657C68.4045 65.398 68.4684 65.709 68.4684 66.099V69.3333H67.7142V68.6686H67.6758C67.6247 68.7751 67.5395 68.8891 67.4201 69.0105C67.3008 69.132 67.1421 69.2353 66.9439 69.3206C66.7458 69.4058 66.504 69.4484 66.2184 69.4484ZM66.3335 68.7708C66.6318 68.7708 66.8832 68.7122 67.0878 68.5951C67.2944 68.4779 67.45 68.3266 67.5544 68.1412C67.6609 67.9559 67.7142 67.7609 67.7142 67.5563V66.866C67.6822 66.9044 67.6119 66.9395 67.5032 66.9715C67.3967 67.0013 67.2731 67.0279 67.1325 67.0514C66.994 67.0727 66.8587 67.0919 66.7266 67.1089C66.5966 67.1238 66.4912 67.1366 66.4102 67.1473C66.2142 67.1728 66.0309 67.2144 65.8605 67.2719C65.6922 67.3273 65.5558 67.4115 65.4514 67.5244C65.3491 67.6352 65.298 67.7865 65.298 67.9782C65.298 68.2403 65.3949 68.4384 65.5888 68.5727C65.7848 68.7048 66.0331 68.7708 66.3335 68.7708ZM71.9801 64.4242V65.0634H69.436V64.4242H71.9801ZM70.1775 63.2481H70.9318V67.9271C70.9318 68.1402 70.9627 68.3 71.0245 68.4065C71.0884 68.5109 71.1693 68.5812 71.2674 68.6174C71.3675 68.6515 71.473 68.6686 71.5838 68.6686C71.6669 68.6686 71.735 68.6643 71.7883 68.6558C71.8416 68.6451 71.8842 68.6366 71.9161 68.6302L72.0696 69.3078C72.0184 69.3269 71.947 69.3461 71.8554 69.3653C71.7638 69.3866 71.6477 69.3973 71.5071 69.3973C71.294 69.3973 71.0852 69.3514 70.8806 69.2598C70.6782 69.1682 70.5099 69.0286 70.3757 68.8411C70.2436 68.6536 70.1775 68.4171 70.1775 68.1316V63.2481ZM75.1202 69.4356C74.6472 69.4356 74.2391 69.3312 73.8961 69.1224C73.5552 68.9115 73.292 68.6174 73.1067 68.2403C72.9234 67.861 72.8318 67.42 72.8318 66.9171C72.8318 66.4143 72.9234 65.9711 73.1067 65.5876C73.292 65.2019 73.5498 64.9015 73.8801 64.6863C74.2125 64.469 74.6003 64.3603 75.0435 64.3603C75.2991 64.3603 75.5516 64.4029 75.8009 64.4882C76.0502 64.5734 76.2771 64.7119 76.4817 64.9036C76.6862 65.0933 76.8492 65.3447 76.9707 65.6579C77.0921 65.9711 77.1528 66.3568 77.1528 66.8149V67.1345H73.3687V66.4825H76.3858C76.3858 66.2055 76.3304 65.9583 76.2196 65.741C76.1109 65.5237 75.9554 65.3522 75.753 65.2264C75.5527 65.1007 75.3162 65.0379 75.0435 65.0379C74.743 65.0379 74.4831 65.1125 74.2636 65.2616C74.0463 65.4086 73.879 65.6004 73.7619 65.8369C73.6447 66.0734 73.5861 66.3269 73.5861 66.5975V67.0322C73.5861 67.4029 73.65 67.7172 73.7778 67.975C73.9078 68.2307 74.0878 68.4257 74.318 68.5599C74.5481 68.692 74.8155 68.7581 75.1202 68.7581C75.3183 68.7581 75.4973 68.7304 75.6571 68.675C75.819 68.6174 75.9586 68.5322 76.0758 68.4193C76.193 68.3042 76.2835 68.1615 76.3474 67.991L77.0761 68.1956C76.9994 68.4427 76.8705 68.66 76.6894 68.8475C76.5083 69.0329 76.2846 69.1778 76.0182 69.2822C75.7519 69.3845 75.4525 69.4356 75.1202 69.4356Z" fill="black"/>
<path d="M39.1529 92.8333H38.3603C38.3134 92.6054 38.2314 92.4051 38.1142 92.2325C37.9992 92.0599 37.8585 91.915 37.6923 91.7978C37.5283 91.6785 37.3461 91.589 37.1458 91.5294C36.9455 91.4697 36.7367 91.4399 36.5194 91.4399C36.1231 91.4399 35.7641 91.54 35.4423 91.7403C35.1227 91.9406 34.8681 92.2357 34.6785 92.6256C34.491 93.0155 34.3972 93.4938 34.3972 94.0606C34.3972 94.6274 34.491 95.1057 34.6785 95.4956C34.8681 95.8855 35.1227 96.1806 35.4423 96.3809C35.7641 96.5812 36.1231 96.6813 36.5194 96.6813C36.7367 96.6813 36.9455 96.6515 37.1458 96.5919C37.3461 96.5322 37.5283 96.4438 37.6923 96.3266C37.8585 96.2073 37.9992 96.0613 38.1142 95.8887C38.2314 95.714 38.3134 95.5137 38.3603 95.2879H39.1529C39.0933 95.6224 38.9846 95.9218 38.8269 96.186C38.6693 96.4502 38.4732 96.675 38.2389 96.8603C38.0045 97.0436 37.7413 97.1831 37.4494 97.279C37.1597 97.3749 36.8497 97.4228 36.5194 97.4228C35.9612 97.4228 35.4647 97.2865 35.0301 97.0137C34.5954 96.741 34.2534 96.3532 34.0041 95.8504C33.7548 95.3475 33.6302 94.7509 33.6302 94.0606C33.6302 93.3703 33.7548 92.7737 34.0041 92.2708C34.2534 91.768 34.5954 91.3802 35.0301 91.1075C35.4647 90.8348 35.9612 90.6984 36.5194 90.6984C36.8497 90.6984 37.1597 90.7463 37.4494 90.8422C37.7413 90.9381 38.0045 91.0787 38.2389 91.2641C38.4732 91.4473 38.6693 91.671 38.8269 91.9353C38.9846 92.1973 39.0933 92.4967 39.1529 92.8333ZM42.3258 97.4356C41.8826 97.4356 41.4937 97.3301 41.1592 97.1192C40.8268 96.9083 40.5669 96.6132 40.3794 96.2339C40.194 95.8546 40.1013 95.4115 40.1013 94.9044C40.1013 94.393 40.194 93.9466 40.3794 93.5652C40.5669 93.1838 40.8268 92.8877 41.1592 92.6767C41.4937 92.4658 41.8826 92.3603 42.3258 92.3603C42.769 92.3603 43.1567 92.4658 43.4891 92.6767C43.8236 92.8877 44.0836 93.1838 44.269 93.5652C44.4565 93.9466 44.5502 94.393 44.5502 94.9044C44.5502 95.4115 44.4565 95.8546 44.269 96.2339C44.0836 96.6132 43.8236 96.9083 43.4891 97.1192C43.1567 97.3301 42.769 97.4356 42.3258 97.4356ZM42.3258 96.7581C42.6624 96.7581 42.9394 96.6718 43.1567 96.4992C43.3741 96.3266 43.5349 96.0997 43.6393 95.8184C43.7437 95.5372 43.7959 95.2325 43.7959 94.9044C43.7959 94.5762 43.7437 94.2705 43.6393 93.9871C43.5349 93.7037 43.3741 93.4747 43.1567 93.3C42.9394 93.1252 42.6624 93.0379 42.3258 93.0379C41.9891 93.0379 41.7121 93.1252 41.4948 93.3C41.2775 93.4747 41.1166 93.7037 41.0122 93.9871C40.9078 94.2705 40.8556 94.5762 40.8556 94.9044C40.8556 95.2325 40.9078 95.5372 41.0122 95.8184C41.1166 96.0997 41.2775 96.3266 41.4948 96.4992C41.7121 96.6718 41.9891 96.7581 42.3258 96.7581ZM48.7953 95.3262V92.4242H49.5496V97.3333H48.7953V96.5024H48.7442C48.6291 96.7517 48.4502 96.9637 48.2073 97.1384C47.9644 97.311 47.6575 97.3973 47.2868 97.3973C46.98 97.3973 46.7073 97.3301 46.4686 97.1959C46.23 97.0595 46.0425 96.855 45.9061 96.5823C45.7698 96.3074 45.7016 95.9612 45.7016 95.5436V92.4242H46.4558V95.4924C46.4558 95.8504 46.556 96.1359 46.7563 96.349C46.9587 96.562 47.2165 96.6686 47.5297 96.6686C47.7172 96.6686 47.9079 96.6206 48.1018 96.5247C48.2978 96.4289 48.4619 96.2818 48.594 96.0837C48.7282 95.8855 48.7953 95.6331 48.7953 95.3262ZM50.9311 99.1742V92.4242H51.6598V93.2041H51.7492C51.8046 93.1188 51.8813 93.0102 51.9794 92.8781C52.0795 92.7438 52.2223 92.6245 52.4076 92.5201C52.5951 92.4136 52.8487 92.3603 53.1683 92.3603C53.5816 92.3603 53.946 92.4637 54.2613 92.6703C54.5767 92.877 54.8228 93.17 54.9996 93.5492C55.1764 93.9285 55.2649 94.3759 55.2649 94.8916C55.2649 95.4115 55.1764 95.8621 54.9996 96.2435C54.8228 96.6228 54.5777 96.9168 54.2645 97.1256C53.9513 97.3323 53.5902 97.4356 53.1811 97.4356C52.8657 97.4356 52.6132 97.3834 52.4236 97.279C52.234 97.1725 52.088 97.0521 51.9858 96.9179C51.8835 96.7815 51.8046 96.6686 51.7492 96.5791H51.6853V99.1742H50.9311ZM51.6725 94.8788C51.6725 95.2495 51.7269 95.5766 51.8355 95.86C51.9442 96.1412 52.1029 96.3617 52.3117 96.5215C52.5206 96.6792 52.7762 96.7581 53.0788 96.7581C53.3941 96.7581 53.6573 96.675 53.8682 96.5088C54.0813 96.3404 54.2411 96.1146 54.3476 95.8312C54.4563 95.5457 54.5106 95.2282 54.5106 94.8788C54.5106 94.5336 54.4573 94.2225 54.3508 93.9456C54.2464 93.6664 54.0877 93.4459 53.8746 93.284C53.6637 93.1199 53.3984 93.0379 53.0788 93.0379C52.772 93.0379 52.5142 93.1157 52.3054 93.2712C52.0965 93.4246 51.9389 93.6398 51.8323 93.9168C51.7258 94.1916 51.6725 94.5123 51.6725 94.8788ZM57.1697 90.7879V97.3333H56.4154V90.7879H57.1697ZM60.6094 97.4356C60.1364 97.4356 59.7284 97.3312 59.3853 97.1224C59.0444 96.9115 58.7813 96.6174 58.5959 96.2403C58.4127 95.861 58.3211 95.42 58.3211 94.9171C58.3211 94.4143 58.4127 93.9711 58.5959 93.5876C58.7813 93.2019 59.0391 92.9015 59.3694 92.6863C59.7017 92.469 60.0895 92.3603 60.5327 92.3603C60.7884 92.3603 61.0409 92.4029 61.2902 92.4882C61.5395 92.5734 61.7664 92.7119 61.9709 92.9036C62.1755 93.0933 62.3385 93.3447 62.4599 93.6579C62.5814 93.9711 62.6421 94.3568 62.6421 94.8149V95.1345H58.858V94.4825H61.875C61.875 94.2055 61.8196 93.9583 61.7089 93.741C61.6002 93.5237 61.4446 93.3522 61.2422 93.2264C61.0419 93.1007 60.8054 93.0379 60.5327 93.0379C60.2323 93.0379 59.9723 93.1125 59.7529 93.2616C59.5356 93.4086 59.3683 93.6004 59.2511 93.8369C59.1339 94.0734 59.0753 94.3269 59.0753 94.5975V95.0322C59.0753 95.4029 59.1392 95.7172 59.2671 95.975C59.3971 96.2307 59.5771 96.4257 59.8072 96.5599C60.0373 96.692 60.3047 96.7581 60.6094 96.7581C60.8076 96.7581 60.9866 96.7304 61.1464 96.675C61.3083 96.6174 61.4478 96.5322 61.565 96.4193C61.6822 96.3042 61.7728 96.1615 61.8367 95.991L62.5654 96.1956C62.4887 96.4427 62.3598 96.66 62.1787 96.8475C61.9976 97.0329 61.7738 97.1778 61.5075 97.2822C61.2412 97.3845 60.9418 97.4356 60.6094 97.4356ZM66.423 97.3333V90.7879H67.2156V93.7027H70.7057V90.7879H71.4983V97.3333H70.7057V94.4058H67.2156V97.3333H66.423ZM74.9771 97.4356C74.534 97.4356 74.1451 97.3301 73.8106 97.1192C73.4782 96.9083 73.2183 96.6132 73.0308 96.2339C72.8454 95.8546 72.7527 95.4115 72.7527 94.9044C72.7527 94.393 72.8454 93.9466 73.0308 93.5652C73.2183 93.1838 73.4782 92.8877 73.8106 92.6767C74.1451 92.4658 74.534 92.3603 74.9771 92.3603C75.4203 92.3603 75.8081 92.4658 76.1405 92.6767C76.475 92.8877 76.735 93.1838 76.9203 93.5652C77.1078 93.9466 77.2016 94.393 77.2016 94.9044C77.2016 95.4115 77.1078 95.8546 76.9203 96.2339C76.735 96.6132 76.475 96.9083 76.1405 97.1192C75.8081 97.3301 75.4203 97.4356 74.9771 97.4356ZM74.9771 96.7581C75.3138 96.7581 75.5908 96.6718 75.8081 96.4992C76.0254 96.3266 76.1863 96.0997 76.2907 95.8184C76.3951 95.5372 76.4473 95.2325 76.4473 94.9044C76.4473 94.5762 76.3951 94.2705 76.2907 93.9871C76.1863 93.7037 76.0254 93.4747 75.8081 93.3C75.5908 93.1252 75.3138 93.0379 74.9771 93.0379C74.6405 93.0379 74.3635 93.1252 74.1462 93.3C73.9288 93.4747 73.768 93.7037 73.6636 93.9871C73.5592 94.2705 73.507 94.5762 73.507 94.9044C73.507 95.2325 73.5592 95.5372 73.6636 95.8184C73.768 96.0997 73.9288 96.3266 74.1462 96.4992C74.3635 96.6718 74.6405 96.7581 74.9771 96.7581ZM81.4467 95.3262V92.4242H82.201V97.3333H81.4467V96.5024H81.3956C81.2805 96.7517 81.1015 96.9637 80.8586 97.1384C80.6157 97.311 80.3089 97.3973 79.9382 97.3973C79.6313 97.3973 79.3586 97.3301 79.12 97.1959C78.8813 97.0595 78.6938 96.855 78.5575 96.5823C78.4211 96.3074 78.3529 95.9612 78.3529 95.5436V92.4242H79.1072V95.4924C79.1072 95.8504 79.2073 96.1359 79.4076 96.349C79.61 96.562 79.8679 96.6686 80.1811 96.6686C80.3686 96.6686 80.5593 96.6206 80.7532 96.5247C80.9492 96.4289 81.1132 96.2818 81.2453 96.0837C81.3796 95.8855 81.4467 95.6331 81.4467 95.3262ZM83.5824 97.3333V92.4242H84.3111V93.1657H84.3623C84.4517 92.9228 84.6137 92.7257 84.8481 92.5745C85.0824 92.4232 85.3466 92.3475 85.6407 92.3475C85.6961 92.3475 85.7653 92.3486 85.8484 92.3507C85.9315 92.3529 85.9944 92.3561 86.037 92.3603V93.1274C86.0114 93.121 85.9528 93.1114 85.8612 93.0986C85.7717 93.0837 85.6769 93.0762 85.5767 93.0762C85.3381 93.0762 85.125 93.1263 84.9375 93.2264C84.7522 93.3245 84.6052 93.4608 84.4965 93.6355C84.39 93.8081 84.3367 94.0052 84.3367 94.2268V97.3333H83.5824ZM90.4083 93.5237L89.7308 93.7154C89.6882 93.6025 89.6253 93.4928 89.5422 93.3862C89.4612 93.2776 89.3505 93.1881 89.2098 93.1178C89.0692 93.0475 88.8892 93.0123 88.6697 93.0123C88.3693 93.0123 88.1189 93.0816 87.9186 93.2201C87.7205 93.3564 87.6214 93.5301 87.6214 93.741C87.6214 93.9285 87.6896 94.0766 87.826 94.1853C87.9623 94.2939 88.1754 94.3845 88.4652 94.4569L89.1938 94.6359C89.6328 94.7424 89.9598 94.9054 90.175 95.1249C90.3902 95.3422 90.4978 95.6224 90.4978 95.9654C90.4978 96.2467 90.4169 96.4981 90.2549 96.7197C90.0951 96.9413 89.8714 97.116 89.5838 97.2438C89.2961 97.3717 88.9616 97.4356 88.5802 97.4356C88.0795 97.4356 87.6651 97.3269 87.337 97.1096C87.0088 96.8923 86.8011 96.5748 86.7137 96.1572L87.4296 95.9782C87.4978 96.2424 87.6267 96.4406 87.8164 96.5727C88.0081 96.7048 88.2585 96.7708 88.5674 96.7708C88.919 96.7708 89.1981 96.6963 89.4048 96.5471C89.6136 96.3958 89.718 96.2147 89.718 96.0038C89.718 95.8333 89.6583 95.6906 89.539 95.5755C89.4197 95.4583 89.2365 95.371 88.9893 95.3134L88.1711 95.1217C87.7215 95.0152 87.3913 94.85 87.1804 94.6263C86.9715 94.4005 86.8671 94.1181 86.8671 93.7794C86.8671 93.5024 86.9449 93.2573 87.1005 93.0443C87.2581 92.8312 87.4723 92.6639 87.7429 92.5425C88.0156 92.421 88.3245 92.3603 88.6697 92.3603C89.1555 92.3603 89.5369 92.4669 89.8139 92.6799C90.093 92.893 90.2911 93.1742 90.4083 93.5237Z" fill="black"/>
<path d="M35.9058 125.333H33.8859V118.788H35.9953C36.6302 118.788 37.1735 118.919 37.6252 119.181C38.0769 119.441 38.4232 119.815 38.6639 120.303C38.9047 120.789 39.0251 121.37 39.0251 122.048C39.0251 122.73 38.9036 123.317 38.6607 123.809C38.4178 124.299 38.0641 124.676 37.5997 124.94C37.1352 125.202 36.5705 125.333 35.9058 125.333ZM34.6785 124.63H35.8546C36.3958 124.63 36.8443 124.526 37.2002 124.317C37.556 124.108 37.8212 123.811 37.996 123.425C38.1707 123.04 38.258 122.58 38.258 122.048C38.258 121.519 38.1717 121.065 37.9992 120.683C37.8266 120.3 37.5688 120.006 37.2257 119.801C36.8827 119.594 36.4555 119.491 35.9441 119.491H34.6785V124.63ZM41.697 125.448C41.3859 125.448 41.1036 125.39 40.85 125.273C40.5965 125.153 40.3951 124.982 40.246 124.758C40.0968 124.532 40.0222 124.259 40.0222 123.94C40.0222 123.659 40.0776 123.431 40.1884 123.256C40.2992 123.079 40.4473 122.941 40.6327 122.84C40.818 122.74 41.0226 122.666 41.2463 122.617C41.4722 122.566 41.6991 122.525 41.9271 122.495C42.2254 122.457 42.4672 122.428 42.6526 122.409C42.8401 122.388 42.9764 122.353 43.0617 122.304C43.149 122.255 43.1927 122.169 43.1927 122.048V122.022C43.1927 121.707 43.1064 121.462 42.9338 121.287C42.7634 121.112 42.5045 121.025 42.1572 121.025C41.7971 121.025 41.5148 121.104 41.3102 121.262C41.1057 121.419 40.9619 121.588 40.8788 121.767L40.1629 121.511C40.2907 121.213 40.4612 120.98 40.6742 120.814C40.8894 120.646 41.1238 120.529 41.3774 120.463C41.633 120.394 41.8845 120.36 42.1316 120.36C42.2893 120.36 42.4704 120.38 42.6749 120.418C42.8816 120.454 43.0808 120.53 43.2726 120.645C43.4665 120.76 43.6274 120.933 43.7552 121.166C43.883 121.398 43.947 121.709 43.947 122.099V125.333H43.1927V124.669H43.1543C43.1032 124.775 43.018 124.889 42.8987 125.011C42.7793 125.132 42.6206 125.235 42.4225 125.321C42.2243 125.406 41.9825 125.448 41.697 125.448ZM41.812 124.771C42.1103 124.771 42.3617 124.712 42.5663 124.595C42.7729 124.478 42.9285 124.327 43.0329 124.141C43.1394 123.956 43.1927 123.761 43.1927 123.556V122.866C43.1607 122.904 43.0904 122.94 42.9818 122.971C42.8752 123.001 42.7516 123.028 42.611 123.051C42.4725 123.073 42.3372 123.092 42.2051 123.109C42.0752 123.124 41.9697 123.137 41.8887 123.147C41.6927 123.173 41.5095 123.214 41.339 123.272C41.1707 123.327 41.0343 123.411 40.9299 123.524C40.8276 123.635 40.7765 123.786 40.7765 123.978C40.7765 124.24 40.8734 124.438 41.0673 124.573C41.2634 124.705 41.5116 124.771 41.812 124.771ZM45.6337 127.174C45.5058 127.174 45.3918 127.164 45.2917 127.142C45.1915 127.123 45.1223 127.104 45.0839 127.085L45.2757 126.42C45.4589 126.467 45.6209 126.484 45.7615 126.471C45.9021 126.458 46.0268 126.395 46.1354 126.283C46.2462 126.172 46.3474 125.992 46.4391 125.742L46.5797 125.359L44.7643 120.424H45.5825L46.9376 124.336H46.9888L48.3439 120.424H49.1621L47.0783 126.049C46.9845 126.303 46.8684 126.513 46.7299 126.679C46.5914 126.847 46.4305 126.972 46.2473 127.053C46.0662 127.134 45.8616 127.174 45.6337 127.174ZM53.6349 121.524L52.9573 121.715C52.9147 121.603 52.8519 121.493 52.7688 121.386C52.6878 121.278 52.577 121.188 52.4364 121.118C52.2958 121.047 52.1157 121.012 51.8963 121.012C51.5958 121.012 51.3455 121.082 51.1452 121.22C50.947 121.356 50.848 121.53 50.848 121.741C50.848 121.929 50.9161 122.077 51.0525 122.185C51.1889 122.294 51.4019 122.384 51.6917 122.457L52.4204 122.636C52.8593 122.742 53.1864 122.905 53.4016 123.125C53.6168 123.342 53.7244 123.622 53.7244 123.965C53.7244 124.247 53.6434 124.498 53.4815 124.72C53.3217 124.941 53.098 125.116 52.8103 125.244C52.5227 125.372 52.1882 125.436 51.8068 125.436C51.3061 125.436 50.8916 125.327 50.5635 125.11C50.2354 124.892 50.0277 124.575 49.9403 124.157L50.6562 123.978C50.7244 124.242 50.8533 124.441 51.0429 124.573C51.2347 124.705 51.485 124.771 51.794 124.771C52.1456 124.771 52.4247 124.696 52.6313 124.547C52.8402 124.396 52.9446 124.215 52.9446 124.004C52.9446 123.833 52.8849 123.691 52.7656 123.576C52.6463 123.458 52.463 123.371 52.2159 123.313L51.3977 123.122C50.9481 123.015 50.6179 122.85 50.4069 122.626C50.1981 122.4 50.0937 122.118 50.0937 121.779C50.0937 121.502 50.1715 121.257 50.327 121.044C50.4847 120.831 50.6988 120.664 50.9694 120.542C51.2421 120.421 51.5511 120.36 51.8963 120.36C52.3821 120.36 52.7635 120.467 53.0404 120.68C53.3196 120.893 53.5177 121.174 53.6349 121.524Z" fill="black"/>
<path d="M35.0748 153.333L33.285 146.788H34.0904L35.4583 152.119H35.5222L36.9157 146.788H37.8106L39.2041 152.119H39.268L40.6359 146.788H41.4413L39.6515 153.333H38.8333L37.3887 148.117H37.3376L35.893 153.333H35.0748ZM43.9278 153.436C43.4548 153.436 43.0467 153.331 42.7037 153.122C42.3628 152.911 42.0997 152.617 41.9143 152.24C41.731 151.861 41.6394 151.42 41.6394 150.917C41.6394 150.414 41.731 149.971 41.9143 149.588C42.0997 149.202 42.3575 148.902 42.6877 148.686C43.0201 148.469 43.4079 148.36 43.8511 148.36C44.1068 148.36 44.3592 148.403 44.6085 148.488C44.8578 148.573 45.0847 148.712 45.2893 148.904C45.4938 149.093 45.6568 149.345 45.7783 149.658C45.8997 149.971 45.9604 150.357 45.9604 150.815V151.134H42.1764V150.482H45.1934C45.1934 150.205 45.138 149.958 45.0272 149.741C44.9185 149.524 44.763 149.352 44.5606 149.226C44.3603 149.101 44.1238 149.038 43.8511 149.038C43.5506 149.038 43.2907 149.112 43.0712 149.262C42.8539 149.409 42.6867 149.6 42.5695 149.837C42.4523 150.073 42.3937 150.327 42.3937 150.598V151.032C42.3937 151.403 42.4576 151.717 42.5854 151.975C42.7154 152.231 42.8955 152.426 43.1256 152.56C43.3557 152.692 43.6231 152.758 43.9278 152.758C44.1259 152.758 44.3049 152.73 44.4647 152.675C44.6266 152.617 44.7662 152.532 44.8834 152.419C45.0006 152.304 45.0911 152.161 45.1551 151.991L45.8837 152.196C45.807 152.443 45.6781 152.66 45.497 152.848C45.3159 153.033 45.0922 153.178 44.8259 153.282C44.5595 153.384 44.2602 153.436 43.9278 153.436ZM49.1661 153.436C48.693 153.436 48.285 153.331 47.942 153.122C47.6011 152.911 47.3379 152.617 47.1526 152.24C46.9693 151.861 46.8777 151.42 46.8777 150.917C46.8777 150.414 46.9693 149.971 47.1526 149.588C47.3379 149.202 47.5957 148.902 47.926 148.686C48.2584 148.469 48.6462 148.36 49.0894 148.36C49.345 148.36 49.5975 148.403 49.8468 148.488C50.0961 148.573 50.323 148.712 50.5276 148.904C50.7321 149.093 50.8951 149.345 51.0166 149.658C51.138 149.971 51.1987 150.357 51.1987 150.815V151.134H47.4146V150.482H50.4317C50.4317 150.205 50.3763 149.958 50.2655 149.741C50.1568 149.524 50.0013 149.352 49.7989 149.226C49.5986 149.101 49.3621 149.038 49.0894 149.038C48.7889 149.038 48.529 149.112 48.3095 149.262C48.0922 149.409 47.9249 149.6 47.8078 149.837C47.6906 150.073 47.632 150.327 47.632 150.598V151.032C47.632 151.403 47.6959 151.717 47.8237 151.975C47.9537 152.231 48.1337 152.426 48.3639 152.56C48.594 152.692 48.8614 152.758 49.1661 152.758C49.3642 152.758 49.5432 152.73 49.703 152.675C49.8649 152.617 50.0045 152.532 50.1217 152.419C50.2389 152.304 50.3294 152.161 50.3933 151.991L51.122 152.196C51.0453 152.443 50.9164 152.66 50.7353 152.848C50.5542 153.033 50.3305 153.178 50.0641 153.282C49.7978 153.384 49.4984 153.436 49.1661 153.436ZM53.0492 151.544L53.0364 150.61H53.1899L55.3376 148.424H56.2708L53.9825 150.738H53.9185L53.0492 151.544ZM52.3461 153.333V146.788H53.1004V153.333H52.3461ZM55.4654 153.333L53.5478 150.904L54.0847 150.38L56.4242 153.333H55.4654ZM60.7189 149.524L60.0413 149.715C59.9987 149.603 59.9359 149.493 59.8528 149.386C59.7718 149.278 59.661 149.188 59.5204 149.118C59.3797 149.047 59.1997 149.012 58.9802 149.012C58.6798 149.012 58.4295 149.082 58.2292 149.22C58.031 149.356 57.932 149.53 57.932 149.741C57.932 149.928 58.0001 150.077 58.1365 150.185C58.2729 150.294 58.4859 150.384 58.7757 150.457L59.5044 150.636C59.9433 150.742 60.2704 150.905 60.4856 151.125C60.7008 151.342 60.8084 151.622 60.8084 151.965C60.8084 152.247 60.7274 152.498 60.5655 152.72C60.4057 152.941 60.182 153.116 59.8943 153.244C59.6067 153.372 59.2722 153.436 58.8908 153.436C58.39 153.436 57.9756 153.327 57.6475 153.11C57.3194 152.892 57.1116 152.575 57.0243 152.157L57.7402 151.978C57.8084 152.242 57.9373 152.441 58.1269 152.573C58.3187 152.705 58.569 152.771 58.878 152.771C59.2295 152.771 59.5087 152.696 59.7153 152.547C59.9241 152.396 60.0285 152.215 60.0285 152.004C60.0285 151.833 59.9689 151.691 59.8496 151.576C59.7302 151.458 59.547 151.371 59.2998 151.313L58.4817 151.122C58.0321 151.015 57.7018 150.85 57.4909 150.626C57.2821 150.4 57.1777 150.118 57.1777 149.779C57.1777 149.502 57.2555 149.257 57.411 149.044C57.5687 148.831 57.7828 148.664 58.0534 148.542C58.3261 148.421 58.6351 148.36 58.9802 148.36C59.466 148.36 59.8474 148.467 60.1244 148.68C60.4035 148.893 60.6017 149.174 60.7189 149.524Z" fill="black"/>
<path d="M6.78409 0.939395H7.84091V6.7178C7.84091 7.3144 7.70028 7.84707 7.41903 8.31582C7.14063 8.78172 6.74716 9.14962 6.23864 9.41951C5.73011 9.68655 5.13352 9.82008 4.44886 9.82008C3.7642 9.82008 3.16761 9.68655 2.65909 9.41951C2.15057 9.14962 1.75568 8.78172 1.47443 8.31582C1.19602 7.84707 1.05682 7.3144 1.05682 6.7178V0.939395H2.11364V6.63258C2.11364 7.05871 2.20739 7.43797 2.39489 7.77036C2.58239 8.09991 2.84943 8.35985 3.19602 8.55019C3.54545 8.73769 3.96307 8.83144 4.44886 8.83144C4.93466 8.83144 5.35227 8.73769 5.7017 8.55019C6.05114 8.35985 6.31818 8.09991 6.50284 7.77036C6.69034 7.43797 6.78409 7.05871 6.78409 6.63258V0.939395ZM9.81499 9.66667V3.12121H10.7866V4.10985H10.8548C10.9741 3.78599 11.19 3.5232 11.5025 3.3215C11.815 3.11979 12.1673 3.01894 12.5593 3.01894C12.6332 3.01894 12.7255 3.02036 12.8363 3.0232C12.9471 3.02604 13.0309 3.0303 13.0877 3.03599V4.05871C13.0536 4.05019 12.9755 4.03741 12.8533 4.02036C12.734 4.00047 12.6076 3.99053 12.4741 3.99053C12.1559 3.99053 11.8718 4.05729 11.6218 4.19082C11.3746 4.3215 11.1786 4.50332 11.0337 4.73627C10.8917 4.96638 10.8207 5.22917 10.8207 5.52462V9.66667H9.81499ZM16.7227 12.2576C16.2369 12.2576 15.8192 12.1951 15.4698 12.0701C15.1204 11.9479 14.8292 11.786 14.5962 11.5843C14.3661 11.3854 14.1829 11.1723 14.0465 10.9451L14.8477 10.3826C14.9386 10.5019 15.0536 10.6383 15.1928 10.7917C15.332 10.9479 15.5224 11.0829 15.7638 11.1965C16.0082 11.313 16.3278 11.3712 16.7227 11.3712C17.2511 11.3712 17.6871 11.2434 18.0309 10.9877C18.3746 10.732 18.5465 10.3314 18.5465 9.78599V8.45644H18.4613C18.3874 8.57576 18.2823 8.72349 18.146 8.89962C18.0124 9.07292 17.8192 9.22775 17.5664 9.36411C17.3164 9.49763 16.9783 9.5644 16.5522 9.5644C16.0238 9.5644 15.5494 9.4394 15.1289 9.1894C14.7113 8.9394 14.3803 8.57576 14.136 8.09849C13.8945 7.62121 13.7738 7.04167 13.7738 6.35985C13.7738 5.6894 13.8917 5.10559 14.1275 4.60843C14.3633 4.10843 14.6914 3.72207 15.1119 3.44934C15.5323 3.17377 16.0181 3.03599 16.5692 3.03599C16.9954 3.03599 17.3335 3.10701 17.5835 3.24905C17.8363 3.38826 18.0295 3.54735 18.163 3.72633C18.2994 3.90246 18.4045 4.04735 18.4783 4.16099H18.5806V3.12121H19.5522V9.85417C19.5522 10.4167 19.4244 10.8741 19.1687 11.2263C18.9158 11.5814 18.5749 11.8414 18.146 12.0062C17.7198 12.1738 17.2454 12.2576 16.7227 12.2576ZM16.6886 8.66099C17.092 8.66099 17.4329 8.56866 17.7113 8.384C17.9897 8.19934 18.2013 7.93371 18.3462 7.58712C18.4911 7.24053 18.5636 6.82576 18.5636 6.3428C18.5636 5.87121 18.4925 5.45502 18.3505 5.09422C18.2085 4.73343 17.9982 4.45076 17.7198 4.24621C17.4414 4.04167 17.0977 3.93939 16.6886 3.93939C16.2624 3.93939 15.9073 4.04735 15.6232 4.26326C15.342 4.47917 15.1303 4.76894 14.9883 5.13258C14.8491 5.49621 14.7795 5.89962 14.7795 6.3428C14.7795 6.79735 14.8505 7.19934 14.9925 7.54877C15.1374 7.89536 15.3505 8.16809 15.6317 8.36695C15.9158 8.56297 16.2681 8.66099 16.6886 8.66099ZM24.1374 9.80303C23.5067 9.80303 22.9627 9.66383 22.5053 9.38542C22.0508 9.10417 21.6999 8.71212 21.4528 8.20928C21.2085 7.7036 21.0863 7.11553 21.0863 6.44508C21.0863 5.77462 21.2085 5.18371 21.4528 4.67235C21.6999 4.15815 22.0437 3.75758 22.484 3.47064C22.9272 3.18087 23.4442 3.03599 24.0352 3.03599C24.3761 3.03599 24.7127 3.0928 25.0451 3.20644C25.3775 3.32008 25.68 3.50474 25.9528 3.76042C26.2255 4.01326 26.4428 4.34849 26.6048 4.7661C26.7667 5.18371 26.8477 5.69792 26.8477 6.30871V6.73485H21.8022V5.86553H25.8249C25.8249 5.49621 25.7511 5.16667 25.6033 4.87689C25.4585 4.58712 25.2511 4.35843 24.9812 4.19082C24.7141 4.0232 24.3988 3.93939 24.0352 3.93939C23.6346 3.93939 23.288 4.03883 22.9954 4.23769C22.7056 4.43371 22.4826 4.6894 22.3263 5.00474C22.1701 5.32008 22.092 5.65815 22.092 6.01894V6.59849C22.092 7.0928 22.1772 7.51184 22.3477 7.85559C22.521 8.1965 22.761 8.45644 23.0678 8.63542C23.3746 8.81155 23.7312 8.89962 24.1374 8.89962C24.4016 8.89962 24.6403 8.86269 24.8533 8.78883C25.0692 8.71212 25.2553 8.59849 25.4116 8.44792C25.5678 8.29451 25.6886 8.10417 25.7738 7.8769L26.7454 8.14962C26.6431 8.47917 26.4712 8.76894 26.2298 9.01894C25.9883 9.2661 25.69 9.45928 25.3349 9.59849C24.9798 9.73485 24.5806 9.80303 24.1374 9.80303ZM29.3832 5.72917V9.66667H28.3775V3.12121H29.3491V4.14394H29.4343C29.5877 3.81155 29.8207 3.54451 30.1332 3.3428C30.4457 3.13826 30.8491 3.03599 31.3434 3.03599C31.7866 3.03599 32.1744 3.1269 32.5067 3.30871C32.8391 3.48769 33.0977 3.76042 33.2823 4.12689C33.467 4.49053 33.5593 4.95076 33.5593 5.50758V9.66667H32.5536V5.57576C32.5536 5.06155 32.4201 4.66099 32.1531 4.37405C31.886 4.08428 31.5195 3.93939 31.0536 3.93939C30.7326 3.93939 30.4457 4.009 30.1928 4.1482C29.9428 4.28741 29.7454 4.49053 29.6005 4.75758C29.4556 5.02462 29.3832 5.34849 29.3832 5.72917ZM38.0561 9.80303C37.4425 9.80303 36.9141 9.65815 36.4709 9.36837C36.0277 9.0786 35.6868 8.67945 35.4482 8.17093C35.2095 7.66241 35.0902 7.08144 35.0902 6.42803C35.0902 5.76326 35.2124 5.17661 35.4567 4.66809C35.7038 4.15672 36.0476 3.75758 36.4879 3.47064C36.9311 3.18087 37.4482 3.03599 38.0391 3.03599C38.4993 3.03599 38.9141 3.12121 39.2834 3.29167C39.6527 3.46212 39.9553 3.70076 40.1911 4.00758C40.4268 4.31439 40.5732 4.67235 40.63 5.08144H39.6243C39.5476 4.78315 39.3771 4.51894 39.1129 4.28883C38.8516 4.05587 38.4993 3.93939 38.0561 3.93939C37.6641 3.93939 37.3203 4.04167 37.0249 4.24621C36.7322 4.44792 36.5036 4.73343 36.3388 5.10275C36.1768 5.46922 36.0959 5.89962 36.0959 6.39394C36.0959 6.89962 36.1754 7.33996 36.3345 7.71496C36.4964 8.08996 36.7237 8.38116 37.0163 8.58854C37.3118 8.79593 37.6584 8.89962 38.0561 8.89962C38.3175 8.89962 38.5547 8.85417 38.7678 8.76326C38.9808 8.67235 39.1612 8.54167 39.3089 8.37121C39.4567 8.20076 39.5618 7.99621 39.6243 7.75758H40.63C40.5732 8.14394 40.4325 8.49195 40.2081 8.80161C39.9865 9.10843 39.6925 9.35275 39.326 9.53457C38.9624 9.71354 38.5391 9.80303 38.0561 9.80303ZM42.7479 12.1212C42.5774 12.1212 42.4254 12.107 42.2919 12.0786C42.1584 12.053 42.0661 12.0275 42.0149 12.0019L42.2706 11.1155C42.5149 11.178 42.7308 11.2008 42.9183 11.1837C43.1058 11.1667 43.272 11.0829 43.4169 10.9323C43.5646 10.7846 43.6996 10.5445 43.8217 10.2121L44.0092 9.70076L41.5888 3.12121H42.6797L44.4865 8.33712H44.5547L46.3615 3.12121H47.4524L44.674 10.6212C44.549 10.9593 44.3942 11.2391 44.2095 11.4607C44.0249 11.6851 43.8104 11.8513 43.5661 11.9593C43.3246 12.0672 43.0518 12.1212 42.7479 12.1212ZM52.2912 9.66667V0.939395H53.348V5.26894H53.4503L57.3707 0.939395H58.7514L55.0866 4.87689L58.7514 9.66667H57.473L54.4389 5.60985L53.348 6.83712V9.66667H52.2912ZM62.2468 9.80303C61.6161 9.80303 61.0721 9.66383 60.6147 9.38542C60.1602 9.10417 59.8093 8.71212 59.5621 8.20928C59.3178 7.7036 59.1957 7.11553 59.1957 6.44508C59.1957 5.77462 59.3178 5.18371 59.5621 4.67235C59.8093 4.15815 60.1531 3.75758 60.5934 3.47064C61.0366 3.18087 61.5536 3.03599 62.1445 3.03599C62.4854 3.03599 62.8221 3.0928 63.1545 3.20644C63.4869 3.32008 63.7894 3.50474 64.0621 3.76042C64.3349 4.01326 64.5522 4.34849 64.7141 4.7661C64.8761 5.18371 64.957 5.69792 64.957 6.30871V6.73485H59.9116V5.86553H63.9343C63.9343 5.49621 63.8604 5.16667 63.7127 4.87689C63.5678 4.58712 63.3604 4.35843 63.0906 4.19082C62.8235 4.0232 62.5082 3.93939 62.1445 3.93939C61.744 3.93939 61.3974 4.03883 61.1048 4.23769C60.815 4.43371 60.592 4.6894 60.4357 5.00474C60.2795 5.32008 60.2013 5.65815 60.2013 6.01894V6.59849C60.2013 7.0928 60.2866 7.51184 60.457 7.85559C60.6303 8.1965 60.8704 8.45644 61.1772 8.63542C61.484 8.81155 61.8406 8.89962 62.2468 8.89962C62.511 8.89962 62.7496 8.86269 62.9627 8.78883C63.1786 8.71212 63.3647 8.59849 63.521 8.44792C63.6772 8.29451 63.7979 8.10417 63.8832 7.8769L64.8548 8.14962C64.7525 8.47917 64.5806 8.76894 64.3391 9.01894C64.0977 9.2661 63.7994 9.45928 63.4442 9.59849C63.0891 9.73485 62.69 9.80303 62.2468 9.80303ZM66.9354 12.1212C66.7649 12.1212 66.6129 12.107 66.4794 12.0786C66.3459 12.053 66.2536 12.0275 66.2024 12.0019L66.4581 11.1155C66.7024 11.178 66.9183 11.2008 67.1058 11.1837C67.2933 11.1667 67.4595 11.0829 67.6044 10.9323C67.7521 10.7846 67.8871 10.5445 68.0092 10.2121L68.1967 9.70076L65.7763 3.12121H66.8672L68.674 8.33712H68.7422L70.549 3.12121H71.6399L68.8615 10.6212C68.7365 10.9593 68.5817 11.2391 68.397 11.4607C68.2124 11.6851 67.9979 11.8513 67.7536 11.9593C67.5121 12.0672 67.2393 12.1212 66.9354 12.1212Z" fill="black"/>
</svg>
